<svg width="152" height="152" viewBox="0 0 152 152" fill="none" xmlns="http://www.w3.org/2000/svg">
<g style="mix-blend-mode:hard-light" filter="url(#filter0_f_14_1070)">
<mask id="path-1-inside-1_14_1070" fill="white">
<path d="M142 80C142 93.8071 130.807 105 117 105C103.193 105 92 93.8071 92 80C92 66.1929 103.193 55 117 55C130.807 55 142 66.1929 142 80ZM99.5 80C99.5 89.665 107.335 97.5 117 97.5C126.665 97.5 134.5 89.665 134.5 80C134.5 70.335 126.665 62.5 117 62.5C107.335 62.5 99.5 70.335 99.5 80Z"/>
</mask>
<path d="M142 80C142 93.8071 130.807 105 117 105C103.193 105 92 93.8071 92 80C92 66.1929 103.193 55 117 55C130.807 55 142 66.1929 142 80ZM99.5 80C99.5 89.665 107.335 97.5 117 97.5C126.665 97.5 134.5 89.665 134.5 80C134.5 70.335 126.665 62.5 117 62.5C107.335 62.5 99.5 70.335 99.5 80Z" stroke="#0094FF" stroke-width="2.70833" mask="url(#path-1-inside-1_14_1070)"/>
</g>
<g style="mix-blend-mode:hard-light" filter="url(#filter1_f_14_1070)">
<mask id="path-2-inside-2_14_1070" fill="white">
<path d="M142 80C142 93.8071 130.807 105 117 105C103.193 105 92 93.8071 92 80C92 66.1929 103.193 55 117 55C130.807 55 142 66.1929 142 80ZM99.5 80C99.5 89.665 107.335 97.5 117 97.5C126.665 97.5 134.5 89.665 134.5 80C134.5 70.335 126.665 62.5 117 62.5C107.335 62.5 99.5 70.335 99.5 80Z"/>
</mask>
<path d="M142 80C142 93.8071 130.807 105 117 105C103.193 105 92 93.8071 92 80C92 66.1929 103.193 55 117 55C130.807 55 142 66.1929 142 80ZM99.5 80C99.5 89.665 107.335 97.5 117 97.5C126.665 97.5 134.5 89.665 134.5 80C134.5 70.335 126.665 62.5 117 62.5C107.335 62.5 99.5 70.335 99.5 80Z" stroke="#0094FF" stroke-width="3.54167" mask="url(#path-2-inside-2_14_1070)"/>
</g>
<g style="mix-blend-mode:hard-light" filter="url(#filter2_ddi_14_1070)">
<mask id="path-3-inside-3_14_1070" fill="white">
<path d="M142 80C142 93.8071 130.807 105 117 105C103.193 105 92 93.8071 92 80C92 66.1929 103.193 55 117 55C130.807 55 142 66.1929 142 80ZM99.5 80C99.5 89.665 107.335 97.5 117 97.5C126.665 97.5 134.5 89.665 134.5 80C134.5 70.335 126.665 62.5 117 62.5C107.335 62.5 99.5 70.335 99.5 80Z"/>
</mask>
<path d="M142 80C142 93.8071 130.807 105 117 105C103.193 105 92 93.8071 92 80C92 66.1929 103.193 55 117 55C130.807 55 142 66.1929 142 80ZM99.5 80C99.5 89.665 107.335 97.5 117 97.5C126.665 97.5 134.5 89.665 134.5 80C134.5 70.335 126.665 62.5 117 62.5C107.335 62.5 99.5 70.335 99.5 80Z" stroke="#00B3FF" stroke-opacity="0.2" stroke-width="2.70833" mask="url(#path-3-inside-3_14_1070)"/>
</g>
<g filter="url(#filter3_f_14_1070)">
<mask id="path-4-inside-4_14_1070" fill="white">
<path d="M142 80C142 93.8071 130.807 105 117 105C103.193 105 92 93.8071 92 80C92 66.1929 103.193 55 117 55C130.807 55 142 66.1929 142 80ZM99.5 80C99.5 89.665 107.335 97.5 117 97.5C126.665 97.5 134.5 89.665 134.5 80C134.5 70.335 126.665 62.5 117 62.5C107.335 62.5 99.5 70.335 99.5 80Z"/>
</mask>
<path d="M142 80C142 93.8071 130.807 105 117 105C103.193 105 92 93.8071 92 80C92 66.1929 103.193 55 117 55C130.807 55 142 66.1929 142 80ZM99.5 80C99.5 89.665 107.335 97.5 117 97.5C126.665 97.5 134.5 89.665 134.5 80C134.5 70.335 126.665 62.5 117 62.5C107.335 62.5 99.5 70.335 99.5 80Z" stroke="#82D9FF" stroke-width="1.66667" mask="url(#path-4-inside-4_14_1070)"/>
</g>
<g filter="url(#filter4_f_14_1070)">
<mask id="path-5-inside-5_14_1070" fill="white">
<path d="M142 80C142 93.8071 130.807 105 117 105C103.193 105 92 93.8071 92 80C92 66.1929 103.193 55 117 55C130.807 55 142 66.1929 142 80ZM99.5 80C99.5 89.665 107.335 97.5 117 97.5C126.665 97.5 134.5 89.665 134.5 80C134.5 70.335 126.665 62.5 117 62.5C107.335 62.5 99.5 70.335 99.5 80Z"/>
</mask>
<path d="M142 80C142 93.8071 130.807 105 117 105C103.193 105 92 93.8071 92 80C92 66.1929 103.193 55 117 55C130.807 55 142 66.1929 142 80ZM99.5 80C99.5 89.665 107.335 97.5 117 97.5C126.665 97.5 134.5 89.665 134.5 80C134.5 70.335 126.665 62.5 117 62.5C107.335 62.5 99.5 70.335 99.5 80Z" stroke="white" stroke-width="0.833333" mask="url(#path-5-inside-5_14_1070)"/>
</g>
<g style="mix-blend-mode:hard-light" filter="url(#filter5_f_14_1070)">
<path d="M35.4788 86.7527L35 86.2739L34.5212 86.7527L18.2504 103.024C16.5179 104.756 13.709 104.756 11.9765 103.024C10.244 101.291 10.244 98.4821 11.9765 96.7496L28.2473 80.4787L28.7261 80L28.2473 79.5212L11.9765 63.2504C10.244 61.5179 10.244 58.709 11.9765 56.9765C13.709 55.244 16.518 55.244 18.2505 56.9765L34.5212 73.2472L35 73.726L35.4788 73.2472L51.7495 56.9765C53.482 55.244 56.291 55.244 58.0235 56.9765C59.756 58.709 59.756 61.5179 58.0235 63.2504L41.7527 79.5212L41.2739 80L41.7527 80.4787L58.0235 96.7496C59.756 98.4821 59.756 101.291 58.0235 103.024C56.291 104.756 53.4821 104.756 51.7496 103.024L35.4788 86.7527Z" stroke="#FF5C00" stroke-width="1.35417"/>
</g>
<g style="mix-blend-mode:hard-light" filter="url(#filter6_f_14_1070)">
<path d="M35.6261 86.6054L35 85.9793L34.3739 86.6054L18.1031 102.876C16.4519 104.527 13.7749 104.527 12.1238 102.876C10.4726 101.225 10.4726 98.548 12.1238 96.8969L28.3946 80.626L29.0207 80L28.3946 79.3739L12.1238 63.1031C10.4727 61.4519 10.4727 58.7749 12.1238 57.1238C13.775 55.4726 16.452 55.4726 18.1031 57.1238L34.3739 73.3946L35 74.0206L35.6261 73.3946L51.8969 57.1238C53.548 55.4726 56.225 55.4726 57.8762 57.1238C59.5273 58.7749 59.5273 61.4519 57.8762 63.1031L41.6054 79.3739L40.9793 80L41.6054 80.626L57.8762 96.8969C59.5274 98.548 59.5274 101.225 57.8762 102.876C56.2251 104.527 53.5481 104.527 51.8969 102.876L35.6261 86.6054Z" stroke="#FF0000" stroke-width="1.77083"/>
</g>
<g style="mix-blend-mode:hard-light" filter="url(#filter7_ddi_14_1070)">
<path d="M35.4788 86.7527L35 86.2739L34.5212 86.7527L18.2504 103.024C16.5179 104.756 13.709 104.756 11.9765 103.024C10.244 101.291 10.244 98.4821 11.9765 96.7496L28.2473 80.4787L28.7261 80L28.2473 79.5212L11.9765 63.2504C10.244 61.5179 10.244 58.709 11.9765 56.9765C13.709 55.244 16.518 55.244 18.2505 56.9765L34.5212 73.2472L35 73.726L35.4788 73.2472L51.7495 56.9765C53.482 55.244 56.291 55.244 58.0235 56.9765C59.756 58.709 59.756 61.5179 58.0235 63.2504L41.7527 79.5212L41.2739 80L41.7527 80.4787L58.0235 96.7496C59.756 98.4821 59.756 101.291 58.0235 103.024C56.291 104.756 53.4821 104.756 51.7496 103.024L35.4788 86.7527Z" stroke="#FF0000" stroke-opacity="0.2" stroke-width="1.35417"/>
</g>
<g filter="url(#filter8_f_14_1070)">
<path d="M35.2946 86.9368L35 86.6422L34.7054 86.9368L18.4345 103.208C16.6003 105.042 13.6265 105.042 11.7923 103.208C9.95812 101.373 9.95812 98.3996 11.7923 96.5654L28.0632 80.2946L28.3578 80L28.0632 79.7053L11.7924 63.4345C9.95819 61.6003 9.95819 58.6265 11.7924 56.7923C13.6266 54.9581 16.6004 54.9581 18.4346 56.7923L34.7054 73.0631L35 73.3577L35.2946 73.0631L51.5654 56.7923C53.3996 54.9581 56.3734 54.9581 58.2076 56.7923C60.0418 58.6265 60.0418 61.6003 58.2076 63.4345L41.9368 79.7053L41.6422 80L41.9368 80.2946L58.2077 96.5654C60.0419 98.3996 60.0419 101.373 58.2077 103.208C56.3735 105.042 53.3997 105.042 51.5655 103.208L35.2946 86.9368Z" stroke="#FF9983" stroke-width="0.833333"/>
</g>
<g filter="url(#filter9_f_14_1070)">
<path d="M35.1473 87.0841L35 86.9368L34.8527 87.0841L18.5818 103.355C16.6663 105.271 13.5606 105.271 11.645 103.355C9.72944 101.439 9.72944 98.3337 11.645 96.4181L27.9158 80.1473L28.0632 80L27.9158 79.8526L11.6451 63.5819C9.72951 61.6663 9.72951 58.5606 11.6451 56.645C13.5606 54.7294 16.6664 54.7294 18.5819 56.645L34.8527 72.9158L35 73.0631L35.1473 72.9158L51.4181 56.645C53.3336 54.7294 56.4394 54.7294 58.3549 56.645C60.2705 58.5606 60.2705 61.6663 58.3549 63.5819L42.0842 79.8526L41.9368 80L42.0842 80.1473L58.355 96.4181C60.2706 98.3337 60.2706 101.439 58.355 103.355C56.4394 105.271 53.3337 105.271 51.4182 103.355L35.1473 87.0841Z" stroke="white" stroke-width="0.416667"/>
</g>
<defs>
<filter id="filter0_f_14_1070" x="85.75" y="48.75" width="62.5" height="62.5" filterUnits="userSpaceOnUse" color-interpolation-filters="sRGB">
<feFlood flood-opacity="0" result="BackgroundImageFix"/>
<feBlend mode="normal" in="SourceGraphic" in2="BackgroundImageFix" result="shape"/>
<feGaussianBlur stdDeviation="3.125" result="effect1_foregroundBlur_14_1070"/>
</filter>
<filter id="filter1_f_14_1070" x="89.9167" y="52.9167" width="54.1666" height="54.1667" filterUnits="userSpaceOnUse" color-interpolation-filters="sRGB">
<feFlood flood-opacity="0" result="BackgroundImageFix"/>
<feBlend mode="normal" in="SourceGraphic" in2="BackgroundImageFix" result="shape"/>
<feGaussianBlur stdDeviation="1.04167" result="effect1_foregroundBlur_14_1070"/>
</filter>
<filter id="filter2_ddi_14_1070" x="89.2917" y="54.375" width="55.4166" height="55.4167" filterUnits="userSpaceOnUse" color-interpolation-filters="sRGB">
<feFlood flood-opacity="0" result="BackgroundImageFix"/>
<feColorMatrix in="SourceAlpha" type="matrix" values="0 0 0 0 0 0 0 0 0 0 0 0 0 0 0 0 0 0 127 0" result="hardAlpha"/>
<feOffset dy="1.35417"/>
<feGaussianBlur stdDeviation="0.520833"/>
<feColorMatrix type="matrix" values="0 0 0 0 0 0 0 0 0 0.051 0 0 0 0 0.082 0 0 0 0.7 0"/>
<feBlend mode="multiply" in2="BackgroundImageFix" result="effect1_dropShadow_14_1070"/>
<feColorMatrix in="SourceAlpha" type="matrix" values="0 0 0 0 0 0 0 0 0 0 0 0 0 0 0 0 0 0 127 0" result="hardAlpha"/>
<feOffset dy="2.08333"/>
<feGaussianBlur stdDeviation="1.35417"/>
<feColorMatrix type="matrix" values="0 0 0 0 0 0 0 0 0 0.4 0 0 0 0 1 0 0 0 1 0"/>
<feBlend mode="color-dodge" in2="effect1_dropShadow_14_1070" result="effect2_dropShadow_14_1070"/>
<feBlend mode="normal" in="SourceGraphic" in2="effect2_dropShadow_14_1070" result="shape"/>
<feColorMatrix in="SourceAlpha" type="matrix" values="0 0 0 0 0 0 0 0 0 0 0 0 0 0 0 0 0 0 127 0" result="hardAlpha"/>
<feOffset dx="-0.135417" dy="0.270833"/>
<feGaussianBlur stdDeviation="0.0677083"/>
<feComposite in2="hardAlpha" operator="arithmetic" k2="-1" k3="1"/>
<feColorMatrix type="matrix" values="0 0 0 0 1 0 0 0 0 1 0 0 0 0 1 0 0 0 0.5 0"/>
<feBlend mode="normal" in2="shape" result="effect3_innerShadow_14_1070"/>
</filter>
<filter id="filter3_f_14_1070" x="91.7917" y="54.7917" width="50.4166" height="50.4167" filterUnits="userSpaceOnUse" color-interpolation-filters="sRGB">
<feFlood flood-opacity="0" result="BackgroundImageFix"/>
<feBlend mode="normal" in="SourceGraphic" in2="BackgroundImageFix" result="shape"/>
<feGaussianBlur stdDeviation="0.104167" result="effect1_foregroundBlur_14_1070"/>
</filter>
<filter id="filter4_f_14_1070" x="91.8611" y="54.8611" width="50.2777" height="50.2778" filterUnits="userSpaceOnUse" color-interpolation-filters="sRGB">
<feFlood flood-opacity="0" result="BackgroundImageFix"/>
<feBlend mode="normal" in="SourceGraphic" in2="BackgroundImageFix" result="shape"/>
<feGaussianBlur stdDeviation="0.0694444" result="effect1_foregroundBlur_14_1070"/>
</filter>
<filter id="filter5_f_14_1070" x="3.75" y="48.75" width="62.5" height="62.5" filterUnits="userSpaceOnUse" color-interpolation-filters="sRGB">
<feFlood flood-opacity="0" result="BackgroundImageFix"/>
<feBlend mode="normal" in="SourceGraphic" in2="BackgroundImageFix" result="shape"/>
<feGaussianBlur stdDeviation="3.125" result="effect1_foregroundBlur_14_1070"/>
</filter>
<filter id="filter6_f_14_1070" x="7.91667" y="52.9167" width="54.1667" height="54.1667" filterUnits="userSpaceOnUse" color-interpolation-filters="sRGB">
<feFlood flood-opacity="0" result="BackgroundImageFix"/>
<feBlend mode="normal" in="SourceGraphic" in2="BackgroundImageFix" result="shape"/>
<feGaussianBlur stdDeviation="1.04167" result="effect1_foregroundBlur_14_1070"/>
</filter>
<filter id="filter7_ddi_14_1070" x="7.29167" y="54.375" width="55.4167" height="55.4167" filterUnits="userSpaceOnUse" color-interpolation-filters="sRGB">
<feFlood flood-opacity="0" result="BackgroundImageFix"/>
<feColorMatrix in="SourceAlpha" type="matrix" values="0 0 0 0 0 0 0 0 0 0 0 0 0 0 0 0 0 0 127 0" result="hardAlpha"/>
<feOffset dy="1.35417"/>
<feGaussianBlur stdDeviation="0.520833"/>
<feColorMatrix type="matrix" values="0 0 0 0 0.15 0 0 0 0 0 0 0 0 0 0 0 0 0 0.7 0"/>
<feBlend mode="multiply" in2="BackgroundImageFix" result="effect1_dropShadow_14_1070"/>
<feColorMatrix in="SourceAlpha" type="matrix" values="0 0 0 0 0 0 0 0 0 0 0 0 0 0 0 0 0 0 127 0" result="hardAlpha"/>
<feOffset dy="2.08333"/>
<feGaussianBlur stdDeviation="1.35417"/>
<feColorMatrix type="matrix" values="0 0 0 0 0.8 0 0 0 0 0.19 0 0 0 0 0.19 0 0 0 1 0"/>
<feBlend mode="color-dodge" in2="effect1_dropShadow_14_1070" result="effect2_dropShadow_14_1070"/>
<feBlend mode="normal" in="SourceGraphic" in2="effect2_dropShadow_14_1070" result="shape"/>
<feColorMatrix in="SourceAlpha" type="matrix" values="0 0 0 0 0 0 0 0 0 0 0 0 0 0 0 0 0 0 127 0" result="hardAlpha"/>
<feOffset dx="-0.135417" dy="0.270833"/>
<feGaussianBlur stdDeviation="0.0677083"/>
<feComposite in2="hardAlpha" operator="arithmetic" k2="-1" k3="1"/>
<feColorMatrix type="matrix" values="0 0 0 0 1 0 0 0 0 1 0 0 0 0 1 0 0 0 0.5 0"/>
<feBlend mode="normal" in2="shape" result="effect3_innerShadow_14_1070"/>
</filter>
<filter id="filter8_f_14_1070" x="9.79167" y="54.7917" width="50.4167" height="50.4167" filterUnits="userSpaceOnUse" color-interpolation-filters="sRGB">
<feFlood flood-opacity="0" result="BackgroundImageFix"/>
<feBlend mode="normal" in="SourceGraphic" in2="BackgroundImageFix" result="shape"/>
<feGaussianBlur stdDeviation="0.104167" result="effect1_foregroundBlur_14_1070"/>
</filter>
<filter id="filter9_f_14_1070" x="9.86111" y="54.8611" width="50.2778" height="50.2778" filterUnits="userSpaceOnUse" color-interpolation-filters="sRGB">
<feFlood flood-opacity="0" result="BackgroundImageFix"/>
<feBlend mode="normal" in="SourceGraphic" in2="BackgroundImageFix" result="shape"/>
<feGaussianBlur stdDeviation="0.0694444" result="effect1_foregroundBlur_14_1070"/>
</filter>
</defs>
</svg>
